<mxfile host="Electron" agent="Mozilla/5.0 (X11; Linux x86_64) AppleWebKit/537.36 (KHTML, like Gecko) draw.io/24.7.17 Chrome/128.0.6613.36 Electron/32.0.1 Safari/537.36" version="24.7.17">
  <diagram name="Page-1" id="RY3iYXmSxKGuXbKDtTaA">
    <mxGraphModel dx="1114" dy="1132" grid="1" gridSize="10" guides="1" tooltips="1" connect="1" arrows="1" fold="1" page="1" pageScale="1" pageWidth="850" pageHeight="1100" math="0" shadow="0">
      <root>
        <mxCell id="0" />
        <mxCell id="1" parent="0" />
        <mxCell id="M8xUp1EHTqxf8q_A0PdD-12" value="Presentation" style="shape=folder;fontStyle=1;tabWidth=110;tabHeight=30;tabPosition=left;html=1;boundedLbl=1;labelInHeader=1;container=1;collapsible=0;whiteSpace=wrap;" vertex="1" parent="1">
          <mxGeometry x="80" y="50" width="670" height="390" as="geometry" />
        </mxCell>
        <mxCell id="M8xUp1EHTqxf8q_A0PdD-13" value="" style="html=1;strokeColor=none;resizeWidth=1;resizeHeight=1;fillColor=none;part=1;connectable=0;allowArrows=0;deletable=0;whiteSpace=wrap;" vertex="1" parent="M8xUp1EHTqxf8q_A0PdD-12">
          <mxGeometry width="670" height="273" relative="1" as="geometry">
            <mxPoint y="30" as="offset" />
          </mxGeometry>
        </mxCell>
        <mxCell id="M8xUp1EHTqxf8q_A0PdD-1" value="StatsPage" style="rounded=0;whiteSpace=wrap;html=1;" vertex="1" parent="M8xUp1EHTqxf8q_A0PdD-12">
          <mxGeometry x="270" y="140" width="120" height="60" as="geometry" />
        </mxCell>
        <mxCell id="M8xUp1EHTqxf8q_A0PdD-15" style="edgeStyle=orthogonalEdgeStyle;rounded=0;orthogonalLoop=1;jettySize=auto;html=1;" edge="1" parent="M8xUp1EHTqxf8q_A0PdD-12" source="M8xUp1EHTqxf8q_A0PdD-2" target="M8xUp1EHTqxf8q_A0PdD-1">
          <mxGeometry relative="1" as="geometry">
            <Array as="points">
              <mxPoint x="200" y="250" />
              <mxPoint x="330" y="250" />
            </Array>
          </mxGeometry>
        </mxCell>
        <mxCell id="M8xUp1EHTqxf8q_A0PdD-2" value="NodeStats" style="rounded=0;whiteSpace=wrap;html=1;" vertex="1" parent="M8xUp1EHTqxf8q_A0PdD-12">
          <mxGeometry x="140" y="280" width="120" height="60" as="geometry" />
        </mxCell>
        <mxCell id="M8xUp1EHTqxf8q_A0PdD-14" style="edgeStyle=orthogonalEdgeStyle;rounded=0;orthogonalLoop=1;jettySize=auto;html=1;" edge="1" parent="M8xUp1EHTqxf8q_A0PdD-12" source="M8xUp1EHTqxf8q_A0PdD-3" target="M8xUp1EHTqxf8q_A0PdD-1">
          <mxGeometry relative="1" as="geometry">
            <Array as="points">
              <mxPoint x="70" y="250" />
              <mxPoint x="330" y="250" />
            </Array>
          </mxGeometry>
        </mxCell>
        <mxCell id="M8xUp1EHTqxf8q_A0PdD-3" value="EdgeStats" style="rounded=0;whiteSpace=wrap;html=1;" vertex="1" parent="M8xUp1EHTqxf8q_A0PdD-12">
          <mxGeometry x="10" y="280" width="120" height="60" as="geometry" />
        </mxCell>
        <mxCell id="M8xUp1EHTqxf8q_A0PdD-16" value="" style="edgeStyle=orthogonalEdgeStyle;rounded=0;orthogonalLoop=1;jettySize=auto;html=1;" edge="1" parent="M8xUp1EHTqxf8q_A0PdD-12" source="M8xUp1EHTqxf8q_A0PdD-4" target="M8xUp1EHTqxf8q_A0PdD-1">
          <mxGeometry relative="1" as="geometry" />
        </mxCell>
        <mxCell id="M8xUp1EHTqxf8q_A0PdD-4" value="ChannelStats" style="rounded=0;whiteSpace=wrap;html=1;" vertex="1" parent="M8xUp1EHTqxf8q_A0PdD-12">
          <mxGeometry x="270" y="280" width="120" height="60" as="geometry" />
        </mxCell>
        <mxCell id="M8xUp1EHTqxf8q_A0PdD-17" style="edgeStyle=orthogonalEdgeStyle;rounded=0;orthogonalLoop=1;jettySize=auto;html=1;" edge="1" parent="M8xUp1EHTqxf8q_A0PdD-12" source="M8xUp1EHTqxf8q_A0PdD-8" target="M8xUp1EHTqxf8q_A0PdD-1">
          <mxGeometry relative="1" as="geometry">
            <Array as="points">
              <mxPoint x="460" y="250" />
              <mxPoint x="330" y="250" />
            </Array>
          </mxGeometry>
        </mxCell>
        <mxCell id="M8xUp1EHTqxf8q_A0PdD-8" value="NetworkStats" style="rounded=0;whiteSpace=wrap;html=1;" vertex="1" parent="M8xUp1EHTqxf8q_A0PdD-12">
          <mxGeometry x="400" y="280" width="120" height="60" as="geometry" />
        </mxCell>
        <mxCell id="M8xUp1EHTqxf8q_A0PdD-18" style="edgeStyle=orthogonalEdgeStyle;rounded=0;orthogonalLoop=1;jettySize=auto;html=1;" edge="1" parent="M8xUp1EHTqxf8q_A0PdD-12" source="M8xUp1EHTqxf8q_A0PdD-9" target="M8xUp1EHTqxf8q_A0PdD-1">
          <mxGeometry relative="1" as="geometry">
            <Array as="points">
              <mxPoint x="595" y="250" />
              <mxPoint x="330" y="250" />
            </Array>
          </mxGeometry>
        </mxCell>
        <mxCell id="M8xUp1EHTqxf8q_A0PdD-9" value="ChannelSelectionCard" style="rounded=0;whiteSpace=wrap;html=1;" vertex="1" parent="M8xUp1EHTqxf8q_A0PdD-12">
          <mxGeometry x="530" y="280" width="130" height="60" as="geometry" />
        </mxCell>
        <mxCell id="M8xUp1EHTqxf8q_A0PdD-10" value="GraphVisualisation" style="rounded=0;whiteSpace=wrap;html=1;" vertex="1" parent="M8xUp1EHTqxf8q_A0PdD-12">
          <mxGeometry x="490" y="140" width="120" height="60" as="geometry" />
        </mxCell>
        <mxCell id="M8xUp1EHTqxf8q_A0PdD-19" value="Optimizer" style="shape=folder;fontStyle=1;tabWidth=110;tabHeight=30;tabPosition=left;html=1;boundedLbl=1;labelInHeader=1;container=1;collapsible=0;whiteSpace=wrap;" vertex="1" parent="1">
          <mxGeometry x="80" y="520" width="200" height="230" as="geometry" />
        </mxCell>
        <mxCell id="M8xUp1EHTqxf8q_A0PdD-20" value="" style="html=1;strokeColor=none;resizeWidth=1;resizeHeight=1;fillColor=none;part=1;connectable=0;allowArrows=0;deletable=0;whiteSpace=wrap;" vertex="1" parent="M8xUp1EHTqxf8q_A0PdD-19">
          <mxGeometry width="200" height="161" relative="1" as="geometry">
            <mxPoint y="30" as="offset" />
          </mxGeometry>
        </mxCell>
        <mxCell id="M8xUp1EHTqxf8q_A0PdD-21" value="OptimizerPage" style="rounded=0;whiteSpace=wrap;html=1;" vertex="1" parent="M8xUp1EHTqxf8q_A0PdD-19">
          <mxGeometry x="40" y="60" width="120" height="60" as="geometry" />
        </mxCell>
        <mxCell id="M8xUp1EHTqxf8q_A0PdD-23" style="edgeStyle=orthogonalEdgeStyle;rounded=0;orthogonalLoop=1;jettySize=auto;html=1;" edge="1" parent="M8xUp1EHTqxf8q_A0PdD-19" source="M8xUp1EHTqxf8q_A0PdD-22" target="M8xUp1EHTqxf8q_A0PdD-21">
          <mxGeometry relative="1" as="geometry" />
        </mxCell>
        <mxCell id="M8xUp1EHTqxf8q_A0PdD-22" value="OptimizerForm" style="rounded=0;whiteSpace=wrap;html=1;" vertex="1" parent="M8xUp1EHTqxf8q_A0PdD-19">
          <mxGeometry x="40" y="160" width="120" height="60" as="geometry" />
        </mxCell>
        <mxCell id="M8xUp1EHTqxf8q_A0PdD-24" value="DataImporter" style="shape=folder;fontStyle=1;tabWidth=110;tabHeight=30;tabPosition=left;html=1;boundedLbl=1;labelInHeader=1;container=1;collapsible=0;whiteSpace=wrap;" vertex="1" parent="1">
          <mxGeometry x="315" y="520" width="200" height="230" as="geometry" />
        </mxCell>
        <mxCell id="M8xUp1EHTqxf8q_A0PdD-25" value="" style="html=1;strokeColor=none;resizeWidth=1;resizeHeight=1;fillColor=none;part=1;connectable=0;allowArrows=0;deletable=0;whiteSpace=wrap;" vertex="1" parent="M8xUp1EHTqxf8q_A0PdD-24">
          <mxGeometry width="200" height="161.00000000000003" relative="1" as="geometry">
            <mxPoint y="30" as="offset" />
          </mxGeometry>
        </mxCell>
        <mxCell id="M8xUp1EHTqxf8q_A0PdD-26" value="DataImporterPage" style="rounded=0;whiteSpace=wrap;html=1;" vertex="1" parent="M8xUp1EHTqxf8q_A0PdD-24">
          <mxGeometry x="40" y="60" width="120" height="60" as="geometry" />
        </mxCell>
        <mxCell id="M8xUp1EHTqxf8q_A0PdD-28" value="" style="edgeStyle=orthogonalEdgeStyle;rounded=0;orthogonalLoop=1;jettySize=auto;html=1;" edge="1" parent="M8xUp1EHTqxf8q_A0PdD-24" source="M8xUp1EHTqxf8q_A0PdD-27" target="M8xUp1EHTqxf8q_A0PdD-26">
          <mxGeometry relative="1" as="geometry" />
        </mxCell>
        <mxCell id="M8xUp1EHTqxf8q_A0PdD-27" value="CsvUpload" style="rounded=0;whiteSpace=wrap;html=1;" vertex="1" parent="M8xUp1EHTqxf8q_A0PdD-24">
          <mxGeometry x="40" y="160" width="120" height="60" as="geometry" />
        </mxCell>
        <mxCell id="M8xUp1EHTqxf8q_A0PdD-29" value="ReportGeneration" style="shape=folder;fontStyle=1;tabWidth=110;tabHeight=30;tabPosition=left;html=1;boundedLbl=1;labelInHeader=1;container=1;collapsible=0;whiteSpace=wrap;" vertex="1" parent="1">
          <mxGeometry x="555" y="520" width="195" height="230" as="geometry" />
        </mxCell>
        <mxCell id="M8xUp1EHTqxf8q_A0PdD-30" value="" style="html=1;strokeColor=none;resizeWidth=1;resizeHeight=1;fillColor=none;part=1;connectable=0;allowArrows=0;deletable=0;whiteSpace=wrap;" vertex="1" parent="M8xUp1EHTqxf8q_A0PdD-29">
          <mxGeometry width="195" height="161" relative="1" as="geometry">
            <mxPoint y="30" as="offset" />
          </mxGeometry>
        </mxCell>
        <mxCell id="M8xUp1EHTqxf8q_A0PdD-31" value="DownloadReport" style="rounded=0;whiteSpace=wrap;html=1;" vertex="1" parent="M8xUp1EHTqxf8q_A0PdD-29">
          <mxGeometry x="38" y="60" width="120" height="60" as="geometry" />
        </mxCell>
        <mxCell id="M8xUp1EHTqxf8q_A0PdD-32" value="App" style="rounded=0;whiteSpace=wrap;html=1;" vertex="1" parent="1">
          <mxGeometry x="250" y="820" width="120" height="60" as="geometry" />
        </mxCell>
        <mxCell id="M8xUp1EHTqxf8q_A0PdD-33" value="Layout" style="rounded=0;whiteSpace=wrap;html=1;" vertex="1" parent="1">
          <mxGeometry x="480" y="820" width="120" height="60" as="geometry" />
        </mxCell>
      </root>
    </mxGraphModel>
  </diagram>
</mxfile>
